HIERARCHY
ROOT SpineBase
{
  OFFSET 0.000000 0.000000 0.000000
  CHANNELS 6 Xposition Yposition Zposition Zrotation Xrotation Yrotation
  JOINT SpineMid
  {
    OFFSET 0.000000 32.310695 -0.000000
    CHANNELS 3 Zrotation Xrotation Yrotation
    JOINT SpineShoulder
    {
      OFFSET 0.198163 23.977529 -0.751948
      CHANNELS 3 Zrotation Xrotation Yrotation
      JOINT Neck
      {
        OFFSET 0.138587 7.920419 -0.574742
        CHANNELS 3 Zrotation Xrotation Yrotation
        JOINT Head
        {
          OFFSET -5.429047 14.316610 -1.324168
          CHANNELS 3 Zrotation Xrotation Yrotation
          End Site
          {
            OFFSET 0 0 0
          }
        }
      }
      JOINT ShoulderLeft
      {
        OFFSET -17.742671 -6.206269 6.123380
        CHANNELS 3 Zrotation Xrotation Yrotation
        JOINT ElbowLeft
        {
          OFFSET -1.495002 -26.607226 4.088515
          CHANNELS 3 Zrotation Xrotation Yrotation
          JOINT WristLeft
          {
            OFFSET 0.506977 -22.006529 -3.877960
            CHANNELS 3 Zrotation Xrotation Yrotation
            JOINT HandLeft
            {
              OFFSET 0.582020 -7.442419 -1.960460
              CHANNELS 3 Zrotation Xrotation Yrotation
              JOINT HandTipLeft
              {
                OFFSET 1.576139 -6.426670 -2.261546
                CHANNELS 3 Zrotation Xrotation Yrotation
                End Site
                {
                  OFFSET 0 0 0
                }
              }
              JOINT ThumbLeft
              {
                OFFSET -2.217881 -0.539806 -0.947062
                CHANNELS 3 Zrotation Xrotation Yrotation
                End Site
                {
                  OFFSET 0 0 0
                }
              }
            }
          }
        }
      }
      JOINT ShoulderRight
      {
        OFFSET 15.574186 -3.361855 -8.006819
        CHANNELS 3 Zrotation Xrotation Yrotation
        JOINT ElbowRight
        {
          OFFSET 7.866603 -26.356230 0.804173
          CHANNELS 3 Zrotation Xrotation Yrotation
          JOINT WristRight
          {
            OFFSET -0.313744 -21.547631 -4.324382
            CHANNELS 3 Zrotation Xrotation Yrotation
            JOINT HandRight
            {
              OFFSET -2.243392 -8.030635 -0.329489
              CHANNELS 3 Zrotation Xrotation Yrotation
              JOINT HandTipRight
              {
                OFFSET 0.034955 -7.571537 -1.238186
                CHANNELS 3 Zrotation Xrotation Yrotation
                End Site
                {
                  OFFSET 0 0 0
                }
              }
              JOINT ThumbRight
              {
                OFFSET 3.583541 0.010007 -0.160106
                CHANNELS 3 Zrotation Xrotation Yrotation
                End Site
                {
                  OFFSET 0 0 0
                }
              }
            }
          }
        }
      }
    }
  }
  JOINT HipLeft
  {
    OFFSET -6.142737 -0.032449 -1.121120
    CHANNELS 3 Zrotation Xrotation Yrotation
    JOINT KneeLeft
    {
      OFFSET 1.955545 -35.628323 5.803806
      CHANNELS 3 Zrotation Xrotation Yrotation
      JOINT AnkleLeft
      {
        OFFSET 3.385629 -36.003237 9.419293
        CHANNELS 3 Zrotation Xrotation Yrotation
        JOINT FootLeft
        {
          OFFSET -0.496151 -8.250694 -5.826167
          CHANNELS 3 Zrotation Xrotation Yrotation
          End Site
          {
            OFFSET 0 0 0
          }
        }
      }
    }
  }
  JOINT HipRight
  {
    OFFSET 7.720292 1.858109 -6.109760
    CHANNELS 3 Zrotation Xrotation Yrotation
    JOINT KneeRight
    {
      OFFSET 7.992046 -34.104265 2.932174
      CHANNELS 3 Zrotation Xrotation Yrotation
      JOINT AnkleRight
      {
        OFFSET 4.014168 -36.425964 8.305301
        CHANNELS 3 Zrotation Xrotation Yrotation
        JOINT FootRight
        {
          OFFSET -1.210738 -8.300945 -5.029663
          CHANNELS 3 Zrotation Xrotation Yrotation
          End Site
          {
            OFFSET 0 0 0
          }
        }
      }
    }
  }
}
MOTION
Frames: 7
Frame Time: 0.033333
-69.284512 78.804400 326.156941 1.206439 0.542424 12.072732 -0.331967 -0.370765 -12.046961 -0.959424 -0.109934 -0.030098 -3.660545 3.002713 0.909423 0.000000 0.000000 0.000000 -1.968014 -6.316964 -0.055229 5.731884 13.444296 -1.281036 -6.857629 -10.948804 0.291399 -4.547082 3.991155 2.700851 0.000000 0.000000 0.000000 0.000000 0.000000 0.000000 -62.071945 62.517206 66.733064 -42.708651 31.873344 -31.614488 -12.824893 -10.465681 -49.978591 -40.511187 -9.835905 13.665867 0.000000 0.000000 0.000000 0.000000 0.000000 0.000000 -4.095308 -1.401151 -12.622591 2.811691 2.489963 0.610452 -0.887052 3.353504 0.000035 0.000000 0.000000 0.000000 -2.837854 2.163723 -11.744234 1.659202 -0.907140 -0.237365 0.355992 -1.166612 -0.043657 0.000000 0.000000 0.000000
-69.302695 78.877737 326.239913 1.072892 0.521587 11.753066 -0.265186 -0.253835 -11.731331 -0.865068 -0.218671 -0.026970 -3.235263 2.775444 0.842669 0.000000 0.000000 0.000000 -1.933029 -6.073041 -0.057538 6.772319 12.332825 -1.602215 -10.349714 -10.198766 0.800661 -2.949922 4.943939 2.637803 0.000000 0.000000 0.000000 0.000000 0.000000 0.000000 -63.289845 61.540626 66.774795 -37.546511 28.076372 -30.698986 -7.752601 -7.620305 -42.908157 -42.644997 -7.995336 12.946349 0.000000 0.000000 0.000000 0.000000 0.000000 0.000000 -4.019267 -1.302422 -12.309559 2.889792 2.371369 0.617167 -2.271914 6.442862 0.856200 0.000000 0.000000 0.000000 -2.493245 2.490562 -11.319376 1.583591 -1.418896 -0.334162 0.280613 -1.044673 -0.048474 0.000000 0.000000 0.000000
-69.346904 79.018426 326.306208 0.910710 0.524078 12.455031 -0.196951 -0.172432 -12.437416 -0.755697 -0.312947 -0.023174 -2.769865 2.562002 0.786239 0.000000 0.000000 0.000000 -1.957560 -6.111792 -0.061054 7.148001 11.310356 -1.702991 -11.948731 -8.790486 1.247714 -2.279390 4.861657 2.555645 0.000000 0.000000 0.000000 0.000000 0.000000 0.000000 -64.587798 60.753017 67.093701 -31.744885 24.018037 -29.584781 -6.540948 -6.096693 -39.801879 -44.052508 -5.540329 14.897588 0.000000 0.000000 0.000000 0.000000 0.000000 0.000000 -3.901921 -0.990807 -13.002810 2.973257 2.075250 0.620356 -2.759581 7.977161 1.152354 0.000000 0.000000 0.000000 -2.133531 2.581280 -11.979957 1.486374 -1.690482 -0.381639 0.228834 -0.905892 -0.045755 0.000000 0.000000 0.000000
-69.450735 79.237648 326.382852 0.682038 0.501492 14.049523 -0.783389 -0.320883 -14.054701 -0.000000 0.000000 0.000000 -2.213892 2.329807 0.730563 0.000000 0.000000 0.000000 -1.984412 -6.151231 -0.065037 6.759679 9.779266 -1.548866 -12.654741 -7.531526 1.636406 -2.395372 3.590930 2.291696 0.000000 0.000000 0.000000 0.000000 0.000000 0.000000 -65.237301 60.248258 67.127851 -27.963483 21.030021 -28.748073 -3.935987 -4.526927 -36.195662 -47.811892 -4.113321 12.559109 0.000000 0.000000 0.000000 0.000000 0.000000 0.000000 -3.554659 -0.425676 -14.549221 2.965564 1.572662 0.607045 -3.169556 8.673241 1.411685 0.000000 0.000000 0.000000 -1.647344 2.530039 -13.568143 1.509977 -2.568120 -0.436051 -0.536196 -0.573709 0.406841 0.000000 0.000000 0.000000
-69.598094 79.527134 326.455581 0.413869 0.484229 16.395857 -0.533732 -0.347699 -16.399225 -0.000000 0.000000 0.000000 -1.695966 2.196881 0.714100 0.000000 0.000000 0.000000 -1.996354 -6.142555 -0.067827 6.089678 8.344424 -1.320740 -13.196295 -5.170874 2.208706 -2.948332 0.891114 1.845549 0.000000 0.000000 0.000000 0.000000 0.000000 0.000000 -64.216999 59.743750 65.625465 -25.709820 19.256264 -27.598130 -2.960207 -2.545028 -34.096583 -49.946867 -2.396336 12.798330 0.000000 0.000000 0.000000 0.000000 0.000000 0.000000 -3.013521 0.256346 -16.823642 2.890412 0.935927 0.582010 -3.456753 8.183475 1.606065 0.000000 0.000000 0.000000 -1.117825 2.307582 -15.941452 1.291838 -2.392414 -0.420806 -0.851178 -0.445053 0.578088 0.000000 0.000000 0.000000
-69.737332 79.846091 326.484926 0.157941 0.498014 18.434130 -0.307323 -0.422513 -18.435950 -0.000000 0.000000 0.000000 -1.183603 2.158603 0.735643 0.000000 0.000000 0.000000 -2.008380 -6.132157 -0.070698 5.150937 7.143510 -1.031142 -13.565860 -2.665958 2.826109 -3.737030 -2.244772 1.260634 0.000000 0.000000 0.000000 0.000000 0.000000 0.000000 -62.907381 59.256296 63.899988 -24.179861 18.112332 -26.516939 -3.257059 -1.462000 -33.372042 -48.620424 -1.855764 13.470781 0.000000 0.000000 0.000000 0.000000 0.000000 0.000000 -2.552871 0.658802 -18.817407 2.852407 0.520146 0.569244 -3.558554 7.066482 1.685369 0.000000 0.000000 0.000000 -0.681867 1.920201 -18.030635 1.081852 -2.111557 -0.380481 -1.008813 -0.465036 0.675791 0.000000 0.000000 0.000000
-69.883600 80.128599 326.458884 -0.090673 0.554129 20.183542 -0.106087 -0.551385 -20.183614 -0.000000 0.000000 0.000000 -0.682249 2.145551 0.766435 0.000000 0.000000 0.000000 -2.018485 -6.121323 -0.073189 4.502676 6.476682 -0.840310 -15.920829 -1.740586 3.670416 -1.313866 -1.511730 0.974128 0.000000 0.000000 0.000000 0.000000 0.000000 0.000000 -63.017367 58.305000 62.944284 -22.743107 17.576035 -25.118527 -3.852004 -1.728616 -33.674045 -49.543578 0.383033 18.003483 0.000000 0.000000 0.000000 0.000000 0.000000 0.000000 -2.091301 0.802490 -20.527462 2.731207 0.278991 0.546202 -3.335319 5.204954 1.575850 0.000000 0.000000 0.000000 -0.352050 1.406213 -19.847916 0.896317 -1.757710 -0.320113 -0.987414 -0.429889 0.657963 0.000000 0.000000 0.000000
